<svg xmlns="http://www.w3.org/2000/svg" xmlns:xlink="http://www.w3.org/1999/xlink" width="63" height="87" viewBox="0 0 63 87">
  <defs>
    <clipPath id="clip-UID_Icon_Employee">
      <rect width="63" height="87"/>
    </clipPath>
  </defs>
  <g id="UID_Icon_Employee" clip-path="url(#clip-UID_Icon_Employee)">
    <rect width="63" height="87" fill="#fff"/>
    <path id="Pfad_1" data-name="Pfad 1" d="M86.234,78.284a14.642,14.642,0,1,1,14.642-14.642A14.655,14.655,0,0,1,86.234,78.284Zm0-26.2a11.56,11.56,0,1,0,11.56,11.56A11.574,11.574,0,0,0,86.234,52.083ZM108.2,119.514H63.5V105.241a22.154,22.154,0,0,1,4.855-14.072A23.549,23.549,0,0,1,85.81,82.746a23.6,23.6,0,0,1,17.478,8.385l.031.039a22.132,22.132,0,0,1,4.878,14.072v14.272Zm-41.615-3.083h38.532v-11.19a19.041,19.041,0,0,0-4.161-12.091A20.484,20.484,0,0,0,85.81,85.829a20.447,20.447,0,0,0-15.1,7.337,19.005,19.005,0,0,0-4.123,12.076Z" transform="translate(-55.394 -42.502)" fill="#727272"/>
  </g>
</svg>
